<svg xmlns="http://www.w3.org/2000/svg" xmlns:xlink="http://www.w3.org/1999/xlink" fill="none" version="1.1" width="157.002685546875" height="24" viewBox="0 0 157.002685546875 24"><g><g><g><path d="M25.5,15C24.3946,15,23.4528,15.7607,23.0126,16.7747C21.1666,21.0264,16.9305,24,12,24C5.3726,24,0,18.6274,0,12C0,5.71605,4.83015,0.56025,10.9803,0.0426998C10.9914,0.0417998,11,0.0325005,11,0.0214005C11,0.00955045,11.0096,0,11.0214,0C11.0214,0,12,0,12,0C12,0,39,0,39,0C45.6275,0,51,5.3726,51,12C51,18.6274,45.6275,24,39,24C34.0695,24,29.8334,21.0264,27.9874,16.7747C27.5472,15.7607,26.6054,15,25.5,15C25.5,15,25.5,15,25.5,15Z" fill-rule="evenodd" fill="#28D1C6" fill-opacity="1"/></g><g><path d="M39.00019454956055,10C40.10476454956055,10,41.00019454956055,9.104569999999999,41.00019454956055,8C41.00019454956055,6.89543,40.10476454956055,6,39.00019454956055,6C37.895624549560544,6,37.00019454956055,6.89543,37.00019454956055,8C37.00019454956055,9.104569999999999,37.895624549560544,10,39.00019454956055,10C39.00019454956055,10,39.00019454956055,10,39.00019454956055,10Z" fill="#FFFFFF" fill-opacity="1"/></g><g><path d="M34.999412536621094,14C36.103982536621096,14,36.999412536621094,13.104569999999999,36.999412536621094,12C36.999412536621094,10.89543,36.103982536621096,10,34.999412536621094,10C33.89484253662109,10,32.999412536621094,10.89543,32.999412536621094,12C32.999412536621094,13.104569999999999,33.89484253662109,14,34.999412536621094,14C34.999412536621094,14,34.999412536621094,14,34.999412536621094,14Z" fill="#FFFFFF" fill-opacity="1"/></g><g><path d="M42.99980545043945,14C44.104375450439456,14,44.99980545043945,13.104569999999999,44.99980545043945,12C44.99980545043945,10.89543,44.104375450439456,10,42.99980545043945,10C41.89523545043945,10,40.99980545043945,10.89543,40.99980545043945,12C40.99980545043945,13.104569999999999,41.89523545043945,14,42.99980545043945,14C42.99980545043945,14,42.99980545043945,14,42.99980545043945,14Z" fill="#FFFFFF" fill-opacity="1"/></g><g><path d="M39.00019454956055,18.000024795532227C40.10476454956055,18.000024795532227,41.00019454956055,17.104594795532226,41.00019454956055,16.000024795532227C41.00019454956055,14.895454795532226,40.10476454956055,14.000024795532227,39.00019454956055,14.000024795532227C37.895624549560544,14.000024795532227,37.00019454956055,14.895454795532226,37.00019454956055,16.000024795532227C37.00019454956055,17.104594795532226,37.895624549560544,18.000024795532227,39.00019454956055,18.000024795532227C39.00019454956055,18.000024795532227,39.00019454956055,18.000024795532227,39.00019454956055,18.000024795532227Z" fill="#FFFFFF" fill-opacity="1"/></g><g><path d="M13.210886032867432,14.986823432922364C13.210886032867432,14.991223432922364,13.210886032867432,14.995673432922363,13.210886032867432,15.000073432922363C13.210886032867432,15.000073432922363,10.198986032867431,15.000073432922363,10.198986032867431,15.000073432922363C10.198986032867431,14.995473432922363,10.198936032867431,14.990873432922363,10.198986032867431,14.986273432922363C10.194786032867432,14.070573432922362,9.77313603286743,13.119573432922364,8.985436032867431,12.472323432922362C8.193786032867433,11.821773432922363,7.120136032867432,11.456323432922364,6.000586032867432,11.456323432922364C6.000586032867432,11.456323432922364,6.000586032867432,9.000073432922363,6.000586032867432,9.000073432922363C7.912886032867432,9.000073432922363,9.746836032867431,9.624322432922364,11.099036032867431,10.735473432922364C11.333036032867431,10.927723432922363,11.549286032867432,11.134123432922364,11.746936032867431,11.352123432922363C11.94908603286743,11.134123432922364,12.168086032867432,10.927723432922363,12.402086032867432,10.735473432922364C13.754286032867432,9.624322432922364,15.588236032867432,9.000073432922363,17.500486032867432,9.000073432922363C17.500486032867432,9.000073432922363,17.500486032867432,11.456323432922364,17.500486032867432,11.456323432922364C16.380986032867433,11.456323432922364,15.30733603286743,11.821773432922363,14.515686032867432,12.472323432922362C13.727836032867431,13.119673432922363,13.215786032867431,14.070923432922363,13.210886032867432,14.986823432922364C13.210886032867432,14.986823432922364,13.210886032867432,14.986823432922364,13.210886032867432,14.986823432922364Z" fill-rule="evenodd" fill="#FFFFFF" fill-opacity="1"/></g></g><g><g><path d="M82.61384,15.4703C82.61384,15.4703,82.52473,15.5792,82.52473,15.5792C82.45877,15.6454,82.34652,15.7308,82.1881,15.8366C82.0363,15.9356,81.85147,16.0378,81.63364,16.1436C81.42244,16.2426,81.1386,16.3249,80.78216,16.3911C80.42572,16.4635,80.04293,16.5,79.63365,16.5C78.76898,16.5,78.02968,16.3583,77.41582,16.0743C76.80196,15.784,76.32013,15.3645,75.970291,14.8168C75.627061,14.26238,75.379536,13.63862,75.227717,12.94555C75.0759035,12.24567,75,11.4375,75,10.5198C75,9.5427,75.0759035,8.7013,75.227717,7.99505C75.379536,7.28218,75.630359,6.65842,75.980192,6.12376C76.33663,5.58249,76.82511,5.176546,77.44553,4.90594C78.06601,4.635333,78.82176,4.5,79.71285,4.5C80.12214,4.5,80.50493,4.5363258,80.86137,4.608912C81.22442,4.681499,81.50827,4.764045,81.71285,4.856433C81.92411,4.948822,82.11223,5.054454,82.27721,5.173266C82.44887,5.292078,82.55444,5.374566,82.59404,5.4207920000000005C82.64027,5.467017,82.67325,5.50328,82.69305,5.5297C82.69305,5.5297,82.54454,7.8069299999999995,82.54454,7.8069299999999995C82.54454,7.8069299999999995,81.03959,7.8069299999999995,81.03959,7.8069299999999995C81.03959,7.8069299999999995,80.52473,6.62871,80.52473,6.62871C80.40592,6.59573,80.30691,6.57921,80.2277,6.57921C79.7855,6.57921,79.44553,6.6815,79.2079,6.88614C78.97028,7.08416,78.78878,7.47692,78.66335,8.06436C78.53798,8.645240000000001,78.47523,9.48329,78.47523,10.57921C78.47523,11.232669999999999,78.51483,11.803840000000001,78.59404,12.29208C78.67987,12.78032,78.78216,13.15656,78.90097,13.42079C79.01978,13.67822,79.16174,13.88614,79.32671,14.04455C79.49175,14.20297,79.64027,14.30507,79.77226,14.35149C79.90431,14.39109,80.04621,14.41089,80.19800000000001,14.41089C80.53462999999999,14.41089,80.88779,14.37129,81.25741,14.29208C81.62709,14.20606,81.93067,14.07735,82.1683,13.90594C82.1683,13.90594,82.61384,15.4703,82.61384,15.4703C82.61384,15.4703,82.61384,15.4703,82.61384,15.4703ZM87.9911,14.8366C88.3739,14.8366,88.64789999999999,14.7048,88.8129,14.4406C89.0571,14.03775,89.1792,13.04456,89.1792,11.4604C89.1792,11.4604,89.1792,8.975249999999999,89.1792,8.975249999999999C89.1792,8.03138,89.0868,7.3284,88.902,6.86634C88.7172,6.40427,88.4135,6.1732700000000005,87.9911,6.1732700000000005C87.6941,6.1732700000000005,87.463,6.2789,87.298,6.4901C87.001,6.87296,86.85249999999999,7.8168299999999995,86.85249999999999,9.32178C86.85249999999999,9.32178,86.85249999999999,11.905940000000001,86.85249999999999,11.905940000000001C86.85249999999999,13.00186,86.935,13.76423,87.1,14.19307C87.2716,14.6219,87.5687,14.8366,87.9911,14.8366C87.9911,14.8366,87.9911,14.8366,87.9911,14.8366ZM89.01089999999999,19.5C88.1528,19.5,87.5422,19.2624,87.1793,18.787100000000002C86.8162,18.3187,86.6182,17.526600000000002,86.5851,16.410899999999998C86.1825,16.3447,85.8195,16.2395,85.496,16.094099999999997C85.1726,15.9486,84.8954,15.7803,84.6644,15.5891C84.43334,15.3911,84.23204,15.1535,84.06038,14.8762C83.88878,14.599,83.74689000000001,14.30879,83.63463,14.00495C83.52907,13.70112,83.44324,13.35829,83.37721,12.97525C83.31124,12.58602,83.26501999999999,12.19988,83.2386,11.81683C83.21879,11.43379,83.20895,11.004950000000001,83.20895,10.52971C83.20895,9.73763,83.2485,9.04765,83.3277,8.4604C83.41353,7.87296,83.56867,7.32178,83.79305,6.8069299999999995C84.01749,6.2854600000000005,84.31452,5.86306,84.6842,5.5396C85.0604,5.216151,85.5422,4.962066,86.1297,4.777227C86.7238,4.5923874,87.4234,4.5,88.2287,4.5C88.7831,4.5,89.2815,4.5527826,89.7237,4.658414C90.166,4.757424,90.5455,4.896041,90.8624,5.074258C91.17920000000001,5.252476,91.4531,5.483476,91.6842,5.76732C91.9218,6.05117,92.1099,6.35476,92.2486,6.67822C92.3937,6.99505,92.5093,7.36801,92.595,7.7970299999999995C92.68090000000001,8.22605,92.7403,8.65179,92.7733,9.074259999999999C92.8063,9.49691,92.8228,9.975249999999999,92.8228,10.5099C92.8228,11.14356,92.7964,11.71101,92.7435,12.212869999999999C92.6908,12.70792,92.5951,13.18317,92.4565,13.63861C92.31790000000001,14.08725,92.1363,14.4771,91.9119,14.8069C91.69409999999999,15.1368,91.4103,15.4276,91.0604,15.6782C90.7172,15.9227,90.3112,16.1139,89.8426,16.252499999999998C89.8426,16.252499999999998,89.8426,16.302,89.8426,16.302C89.8426,16.8298,89.9185,17.1801,90.0703,17.3515C90.2287,17.5229,90.4697,17.6089,90.7931,17.6089C90.88550000000001,17.6089,90.9713,17.599,91.0505,17.5792C91.1363,17.566200000000002,91.2122,17.5464,91.2782,17.5198C91.3442,17.4932,91.407,17.4604,91.4664,17.4208C91.4664,17.4208,91.4664,18.7673,91.4664,18.7673C91.4598,18.7741,91.4499,18.784,91.4366,18.797C90.8954,19.2655,90.0868,19.5,89.01089999999999,19.5C89.01089999999999,19.5,89.01089999999999,19.5,89.01089999999999,19.5ZM98.3366,16.5C97.6568,16.5,97.0528,16.433799999999998,96.5247,16.302C96.0033,16.1702,95.5742,15.992,95.2376,15.7673C94.9076,15.5427,94.6336,15.2655,94.4158,14.9356C94.2046,14.599,94.0561,14.24567,93.97030000000001,13.87624C93.8845,13.50681,93.8416,13.09715,93.8416,12.64852C93.8416,12.64852,93.8416,4.688119,93.8416,4.688119C93.8416,4.688119,97.3663,4.688119,97.3663,4.688119C97.3663,4.688119,97.3663,12.20297,97.3663,12.20297C97.3663,13.04146,97.4521,13.61881,97.6237,13.93565C97.80199999999999,14.24567,98.0594,14.40099,98.396,14.40099C98.5809,14.40099,98.7426,14.37129,98.8812,14.31188C99.0198,14.24567,99.1485,14.13676,99.2673,13.98515C99.3861,13.82674,99.4752,13.6021,99.5346,13.31188C99.6007,13.01485,99.6336,12.65532,99.6336,12.23268C99.6336,12.23268,99.6336,4.688119,99.6336,4.688119C99.6336,4.688119,102.7624,4.688119,102.7624,4.688119C102.7624,4.688119,102.7624,12.70792,102.7624,12.70792C102.7624,13.15037,102.7228,13.5495,102.6435,13.90594C102.571,14.26238,102.4323,14.6089,102.2277,14.9455C102.02969999999999,15.2754,101.7657,15.5526,101.4356,15.7772C101.1122,15.9951,100.6865,16.1702,100.1584,16.302C99.637,16.433799999999998,99.02969999999999,16.5,98.3366,16.5C98.3366,16.5,98.3366,16.5,98.3366,16.5ZM107.3681,16.292099999999998C107.3681,16.292099999999998,104.0909,16.292099999999998,104.0909,16.292099999999998C104.0909,16.292099999999998,104.0909,4.688119,104.0909,4.688119C104.0909,4.688119,105.3978,4.688119,105.3978,4.688119C105.7476,4.688119,106.2757,4.674937,106.982,4.648514C107.6882,4.615531,108.26910000000001,4.5990075,108.7245,4.5990075C110.0051,4.5990075,110.97540000000001,4.938922,111.6354,5.61881C112.2955,6.2987,112.6255,7.3185,112.6255,8.67822C112.6255,9.49691,112.5166,10.24257,112.2988,10.91584C112.08760000000001,11.5823,111.8005,12.130569999999999,111.4374,12.55941C111.0744,12.98825,110.6619,13.31869,110.19980000000001,13.54951C109.73769999999999,13.78032,109.2493,13.89604,108.7345,13.89604C108.66839999999999,13.89604,108.59909999999999,13.89604,108.5265,13.89604C108.4605,13.89604,108.39779999999999,13.89604,108.33840000000001,13.89604C108.2856,13.88923,108.2196,13.88614,108.1404,13.88614C108.0678,13.87933,108.0084,13.87624,107.9622,13.87624C107.9226,13.86943,107.8632,13.86634,107.78399999999999,13.86634C107.7114,13.85953,107.6619,13.85644,107.6354,13.85644C107.60900000000001,13.85644,107.5595,13.85334,107.48689999999999,13.84653C107.4143,13.83973,107.37469999999999,13.83663,107.3681,13.83663C107.3681,13.83663,107.3681,16.292099999999998,107.3681,16.292099999999998C107.3681,16.292099999999998,107.3681,16.292099999999998,107.3681,16.292099999999998ZM109.378,8.24257C109.378,7.75414,109.24600000000001,7.35811,108.982,7.05445C108.7179,6.7508,108.33840000000001,6.59901,107.8434,6.59901C107.8434,6.59901,107.3681,6.59901,107.3681,6.59901C107.3681,6.59901,107.3681,11.74752,107.3681,11.74752C107.3681,11.74752,107.7345,11.74752,107.7345,11.74752C108.2559,11.74752,108.6585,11.5724,108.94239999999999,11.22277C109.2328,10.87314,109.378,10.36819,109.378,9.70792C109.378,9.70792,109.378,8.24257,109.378,8.24257C109.378,8.24257,109.378,8.24257,109.378,8.24257ZM115.21459999999999,16.292099999999998C115.21459999999999,16.292099999999998,115.21459999999999,7.31188,115.21459999999999,7.31188C115.21459999999999,7.31188,112.89779999999999,7.31188,112.89779999999999,7.31188C112.89779999999999,7.31188,112.89779999999999,4.688119,112.89779999999999,4.688119C112.89779999999999,4.688119,120.878,4.688119,120.878,4.688119C120.878,4.688119,120.878,7.31188,120.878,7.31188C120.878,7.31188,118.5612,7.31188,118.5612,7.31188C118.5612,7.31188,118.5612,16.292099999999998,118.5612,16.292099999999998C118.5612,16.292099999999998,115.21459999999999,16.292099999999998,115.21459999999999,16.292099999999998C115.21459999999999,16.292099999999998,115.21459999999999,16.292099999999998,115.21459999999999,16.292099999999998Z" fill="#34CAC0" fill-opacity="1"/></g><g><path d="M130.83493111083985,16.29208341447115C130.83493111083985,16.29208341447115,127.55770111083984,16.29208341447115,127.55770111083984,16.29208341447115C127.55770111083984,16.29208341447115,127.55770111083984,4.688095314471149,127.55770111083984,4.688095314471149C127.55770111083984,4.688095314471149,130.83493111083985,4.688095314471149,130.83493111083985,4.688095314471149C130.83493111083985,4.688095314471149,130.83493111083985,9.28215341447115,130.83493111083985,9.28215341447115C130.83493111083985,9.28215341447115,133.37955111083986,9.28215341447115,133.37955111083986,9.28215341447115C133.37955111083986,9.28215341447115,133.37955111083986,4.688095314471149,133.37955111083986,4.688095314471149C133.37955111083986,4.688095314471149,136.65677111083986,4.688095314471149,136.65677111083986,4.688095314471149C136.65677111083986,4.688095314471149,136.65677111083986,16.29208341447115,136.65677111083986,16.29208341447115C136.65677111083986,16.29208341447115,133.37955111083986,16.29208341447115,133.37955111083986,16.29208341447115C133.37955111083986,16.29208341447115,133.37955111083986,11.55938341447115,133.37955111083986,11.55938341447115C133.37955111083986,11.55938341447115,130.83493111083985,11.55938341447115,130.83493111083985,11.55938341447115C130.83493111083985,11.55938341447115,130.83493111083985,16.29208341447115,130.83493111083985,16.29208341447115C130.83493111083985,16.29208341447115,130.83493111083985,16.29208341447115,130.83493111083985,16.29208341447115ZM142.45630111083983,16.49998341447115C141.77620111083985,16.49998341447115,141.17220111083984,16.43378341447115,140.64440111083985,16.30198341447115C140.12270111083984,16.170183414471147,139.69390111083985,15.99198341447115,139.35730111083984,15.76728341447115C139.02740111083983,15.54268341447115,138.75330111083986,15.265483414471149,138.53550111083985,14.93558341447115C138.32450111083983,14.59898341447115,138.17600111083985,14.24564341447115,138.08990111083983,13.876213414471149C138.00390111083985,13.50678341447115,137.96120111083985,13.09713341447115,137.96120111083985,12.64849341447115C137.96120111083985,12.64849341447115,137.96120111083985,4.688095314471149,137.96120111083985,4.688095314471149C137.96120111083985,4.688095314471149,141.48600111083985,4.688095314471149,141.48600111083985,4.688095314471149C141.48600111083985,4.688095314471149,141.48600111083985,12.20294341447115,141.48600111083985,12.20294341447115C141.48600111083985,13.041433414471149,141.57200111083984,13.618793414471149,141.74340111083984,13.935623414471149C141.92160111083984,14.24564341447115,142.17910111083984,14.40096341447115,142.51570111083984,14.40096341447115C142.70070111083984,14.40096341447115,142.86220111083983,14.37126341447115,143.00080111083983,14.31186341447115C143.13940111083986,14.24564341447115,143.26820111083984,14.13673341447115,143.38700111083983,13.985123414471149C143.50580111083985,13.826713414471149,143.59490111083983,13.60208341447115,143.65430111083984,13.31185341447115C143.72050111083985,13.014823414471149,143.75330111083986,12.655303414471149,143.75330111083986,12.23265341447115C143.75330111083986,12.23265341447115,143.75330111083986,4.688095314471149,143.75330111083986,4.688095314471149C143.75330111083986,4.688095314471149,146.88200111083984,4.688095314471149,146.88200111083984,4.688095314471149C146.88200111083984,4.688095314471149,146.88200111083984,12.70789341447115,146.88200111083984,12.70789341447115C146.88200111083984,13.15034341447115,146.84240111083983,13.54948341447115,146.76320111083984,13.905913414471149C146.69080111083986,14.26235341447115,146.55220111083983,14.60888341447115,146.34740111083985,14.94548341447115C146.14940111083985,15.275383414471149,145.88510111083986,15.55258341447115,145.55530111083985,15.77718341447115C145.23170111083985,15.99498341447115,144.80590111083984,16.170183414471147,144.27810111083986,16.30198341447115C143.75640111083985,16.43378341447115,143.14940111083985,16.49998341447115,142.45630111083983,16.49998341447115C142.45630111083983,16.49998341447115,142.45630111083983,16.49998341447115,142.45630111083983,16.49998341447115ZM152.25020111083984,14.35146341447115C152.71870111083985,14.35146341447115,153.06210111083985,14.21965341447115,153.27990111083983,13.955423414471149C153.49770111083984,13.69119341447115,153.60670111083985,13.37807341447115,153.60670111083985,13.01483341447115C153.60670111083985,13.01483341447115,153.60670111083985,12.32176341447115,153.60670111083985,12.32176341447115C153.60670111083985,11.892923414471149,153.46800111083985,11.58908341447115,153.19080111083986,11.41086341447115C152.91360111083983,11.22584341447115,152.59980111083985,11.133643414471148,152.25020111083984,11.133643414471148C152.25020111083984,11.133643414471148,151.47790111083984,11.133643414471148,151.47790111083984,11.133643414471148C151.47790111083984,11.133643414471148,151.47790111083984,14.35146341447115,151.47790111083984,14.35146341447115C151.47790111083984,14.35146341447115,152.25020111083984,14.35146341447115,152.25020111083984,14.35146341447115C152.25020111083984,14.35146341447115,152.25020111083984,14.35146341447115,152.25020111083984,14.35146341447115ZM153.46800111083985,7.658393414471149C153.46800111083985,7.26235341447115,153.35910111083984,6.988403414471149,153.14130111083983,6.836613414471149C152.92350111083985,6.678193414471149,152.60970111083984,6.5989834144711494,152.20070111083984,6.5989834144711494C152.20070111083984,6.5989834144711494,151.47790111083984,6.5989834144711494,151.47790111083984,6.5989834144711494C151.47790111083984,6.5989834144711494,151.47790111083984,9.46037341447115,151.47790111083984,9.46037341447115C151.47790111083984,9.46037341447115,152.27990111083983,9.46037341447115,152.27990111083983,9.46037341447115C152.66300111083984,9.46037341447115,152.95630111083983,9.311853414471148,153.16110111083984,9.014823414471149C153.36590111083984,8.71117341447115,153.46800111083985,8.34156341447115,153.46800111083985,7.905913414471149C153.46800111083985,7.905913414471149,153.46800111083985,7.658393414471149,153.46800111083985,7.658393414471149C153.46800111083985,7.658393414471149,153.46800111083985,7.658393414471149,153.46800111083985,7.658393414471149ZM152.92350111083985,16.38118341447115C152.40860111083984,16.38118341447115,151.74220111083986,16.368183414471147,150.92350111083985,16.34158341447115C150.10480111083984,16.31498341447115,149.51750111083985,16.29888341447115,149.16110111083984,16.29208341447115C149.16110111083984,16.29208341447115,148.21060111083983,16.29208341447115,148.21060111083983,16.29208341447115C148.21060111083983,16.29208341447115,148.21060111083983,4.688095314471149,148.21060111083983,4.688095314471149C148.21060111083983,4.688095314471149,149.92350111083985,4.688095314471149,149.92350111083985,4.688095314471149C150.33930111083984,4.688095314471149,150.81460111083985,4.674912814471149,151.34920111083983,4.64848951447115C151.88390111083984,4.615506814471149,152.27000111083984,4.5989834144711494,152.50760111083986,4.5989834144711494C153.27990111083983,4.5989834144711494,153.93030111083985,4.661669614471149,154.45810111083983,4.78710241447115C154.99280111083985,4.912536414471149,155.41170111083983,5.10065641447115,155.71560111083986,5.351460414471149C156.01940111083985,5.60226341447115,156.23350111083985,5.89273341447115,156.35910111083984,6.222743414471149C156.49090111083984,6.5527634144711495,156.55710111083985,6.9455234144711495,156.55710111083985,7.400973414471149C156.55710111083985,8.10066341447115,156.39560111083983,8.70127341447115,156.07200111083984,9.20294341447115C155.74840111083984,9.704803414471149,155.27990111083983,10.017923414471149,154.66610111083983,10.14354341447115C156.22360111083984,10.28215341447115,157.00270111083984,11.196143414471148,157.00270111083984,12.886113414471149C157.00270111083984,13.39416341447115,156.92660111083984,13.856413414471149,156.77500111083984,14.27225341447115C156.62340111083984,14.68128341447115,156.38880111083984,15.04758341447115,156.07200111083984,15.371283414471149C155.76200111083983,15.68808341447115,155.33930111083984,15.93558341447115,154.80470111083986,16.11388341447115C154.27000111083984,16.29208341447115,153.64320111083984,16.38118341447115,152.92350111083985,16.38118341447115C152.92350111083985,16.38118341447115,152.92350111083985,16.38118341447115,152.92350111083985,16.38118341447115Z" fill="#39DBD0" fill-opacity="1"/></g></g></g></svg>