<svg xmlns="http://www.w3.org/2000/svg" xmlns:xlink="http://www.w3.org/1999/xlink" fill="none" version="1.1" width="73" height="73" viewBox="0 0 73 73"><g><g><g><ellipse cx="36.5" cy="36.5" rx="35.5" ry="35.5" fill-opacity="0" stroke-opacity="1" stroke="#FFFFFF" fill="none" stroke-width="2"/></g></g><g transform="matrix(0.8660253882408142,-0.5,0.5,0.8660253882408142,-16.840514114017424,15.472610748198349)"><g><path d="M20.4520263671875,46.5250828125C20.4520263671875,47.0773928125,20.8997193671875,47.5250828125,21.4520263671875,47.5250828125L45.1146263671875,47.5250828125L40.457726367187504,52.1819328125C40.0672263671875,52.5724328125,40.0672263671875,53.2056328125,40.457726367187504,53.5961328125C40.8482263671875,53.9867328125,41.481426367187495,53.9867328125,41.8720263671875,53.5961328125L48.2359263671875,47.232172812499996C48.6264263671875,46.8416728125,48.6264263671875,46.2084928125,48.2359263671875,45.8179928125L41.8720263671875,39.4540408125C41.481426367187495,39.0634766125,40.8482263671875,39.0634766125,40.457726367187504,39.4540408125C40.0672263671875,39.8445438125,40.0672263671875,40.4777228125,40.457726367187504,40.8682228125L45.1146263671875,45.5250828125L21.4520263671875,45.5250828125C20.8997193671875,45.5250828125,20.4520263671875,45.9728428125,20.4520263671875,46.5250828125Z" fill="#FFFFFF" fill-opacity="1"/></g></g></g></svg>